<mxfile host="app.diagrams.net" agent="Mozilla/5.0 (Windows NT 10.0; Win64; x64) AppleWebKit/537.36 (KHTML, like Gecko) Chrome/136.0.0.0 Safari/537.36" version="27.1.3">
  <diagram name="PÃ¡gina-1" id="wrAb_xcha3NBGFxxCfe1">
    <mxGraphModel dx="1869" dy="1731" grid="1" gridSize="10" guides="1" tooltips="1" connect="1" arrows="1" fold="1" page="1" pageScale="1" pageWidth="827" pageHeight="1169" math="0" shadow="0">
      <root>
        <mxCell id="0" />
        <mxCell id="1" parent="0" />
        <mxCell id="yPELLnNi22u4AKccwQ1x-1" value="Utilizador" style="shape=umlActor;verticalLabelPosition=bottom;verticalAlign=top;html=1;outlineConnect=0;" vertex="1" parent="1">
          <mxGeometry x="50" y="60" width="60" height="90" as="geometry" />
        </mxCell>
        <mxCell id="yPELLnNi22u4AKccwQ1x-2" value="Sistema" style="shape=umlActor;verticalLabelPosition=bottom;verticalAlign=top;html=1;outlineConnect=0;" vertex="1" parent="1">
          <mxGeometry x="470" y="30" width="50" height="90" as="geometry" />
        </mxCell>
        <mxCell id="yPELLnNi22u4AKccwQ1x-3" value="Gera troco na maquina" style="ellipse;whiteSpace=wrap;html=1;" vertex="1" parent="1">
          <mxGeometry x="430" y="-110" width="140" height="70" as="geometry" />
        </mxCell>
        <mxCell id="yPELLnNi22u4AKccwQ1x-4" value="Atualiza maquina de pagamento" style="ellipse;whiteSpace=wrap;html=1;" vertex="1" parent="1">
          <mxGeometry x="610" y="170" width="140" height="70" as="geometry" />
        </mxCell>
        <mxCell id="yPELLnNi22u4AKccwQ1x-5" value="Verifica troco na maquina" style="ellipse;whiteSpace=wrap;html=1;" vertex="1" parent="1">
          <mxGeometry x="10" y="-90" width="140" height="70" as="geometry" />
        </mxCell>
        <mxCell id="yPELLnNi22u4AKccwQ1x-6" value="Paga ticket de estacionamento" style="ellipse;whiteSpace=wrap;html=1;" vertex="1" parent="1">
          <mxGeometry x="80" y="290" width="140" height="70" as="geometry" />
        </mxCell>
        <mxCell id="yPELLnNi22u4AKccwQ1x-7" value="Gera ticket automatico" style="ellipse;whiteSpace=wrap;html=1;" vertex="1" parent="1">
          <mxGeometry x="-90" y="210" width="140" height="70" as="geometry" />
        </mxCell>
        <mxCell id="yPELLnNi22u4AKccwQ1x-8" value="Verifica notas inseridas" style="ellipse;whiteSpace=wrap;html=1;" vertex="1" parent="1">
          <mxGeometry x="560" y="270" width="140" height="70" as="geometry" />
        </mxCell>
        <mxCell id="yPELLnNi22u4AKccwQ1x-9" value="Calcula restante" style="ellipse;whiteSpace=wrap;html=1;" vertex="1" parent="1">
          <mxGeometry x="430" y="200" width="140" height="70" as="geometry" />
        </mxCell>
        <mxCell id="yPELLnNi22u4AKccwQ1x-10" value="Calcula e devolve troco" style="ellipse;whiteSpace=wrap;html=1;" vertex="1" parent="1">
          <mxGeometry x="350" y="310" width="140" height="70" as="geometry" />
        </mxCell>
      </root>
    </mxGraphModel>
  </diagram>
</mxfile>
